<svg xmlns="http://www.w3.org/2000/svg" width="20" height="20" viewBox="0 0 20 20">
    <g fill="none" fill-rule="evenodd">
        <path fill="#D8D8D8" fill-opacity="0" d="M0 0H20V20H0z"/>
        <path fill="#000" fill-rule="nonzero" d="M11.625 9.987l6.994-6.993c.455-.455.455-1.19 0-1.645-.455-.455-1.19-.455-1.645 0L9.98 8.342 2.987 1.35c-.455-.455-1.19-.455-1.646 0-.455.454-.455 1.19 0 1.645l6.994 6.993-6.994 6.994c-.455.455-.455 1.19 0 1.645.227.227.525.341.823.341.298 0 .596-.114.823-.34l6.993-6.994 6.994 6.993c.226.227.524.341.822.341.298 0 .596-.114.823-.34.455-.456.455-1.191 0-1.646l-6.994-6.994z"/>
    </g>
</svg>
