<svg xmlns="http://www.w3.org/2000/svg" width="24" height="24" viewBox="0 0 24 24">
    <g fill="none" fill-rule="evenodd">
        <path fill="#D8D8D8" fill-opacity="0" d="M0 0H24V24H0z"/>
        <path fill="#282828" fill-rule="nonzero" d="M22.27 0H1.73C.776 0 0 .775 0 1.73v20.54C0 23.224.775 24 1.73 24h11.09v-9.281H9.703v-3.633h3.117V8.412c0-3.1 1.893-4.787 4.659-4.787 1.324 0 2.463.098 2.794.142v3.24h-1.907c-1.504 0-1.796.716-1.796 1.765v2.314h3.598l-.469 3.633H16.57V24h5.7c.955 0 1.73-.775 1.73-1.73V1.73C24 .776 23.225 0 22.27 0z"/>
    </g>
</svg>
