<svg xmlns="http://www.w3.org/2000/svg" width="193" height="15" viewBox="0 0 193 15">
    <path fill="#282828" fill-rule="evenodd" d="M.94 14L5.38.8h4.9L14.74 14h-4.2L8.38 6l-.56-2.16h-.04l-.54 2.14L5.02 14H.94zm10.64-2.74H4.12V8.62h7.46v2.64zm8.4-.32h6.28V14H15.9V.8h4.08v10.14zM32.06.8V14h-4.08V.8h4.08zm14.88 0V14h-4.48l-3.6-6.54-.84-1.78h-.04l.08 2.6V14H34.5V.8h4.46l3.6 6.54.86 1.78h.02l-.08-2.6V.8h3.58zM48.1 14L52.54.8h4.9L61.9 14h-4.2l-2.16-8-.56-2.16h-.04l-.54 2.14L52.18 14H48.1zm10.64-2.74h-7.46V8.62h7.46v2.64zM80.94.8L74.6 8.74l-.2-.78-3.02 3.9-.88-3.02L76.52.8h4.42zm-8.46 0V14H68.4V.8h4.08zm3.58 4.18l5.2 9.02h-4.62l-3.6-6.76 3.02-2.26zM95.24.8L90.68 14h-4.84L81.28.8h4.26l2.12 7.58.68 2.58.64-2.54L91.12.8h4.12zM95.16 14L99.6.8h4.9l4.46 13.2h-4.2l-2.16-8-.56-2.16H102l-.54 2.14L99.24 14h-4.08zm10.64-2.74h-7.46V8.62h7.46v2.64zM115.6.6c1.253 0 2.367.17 3.34.51.973.34 1.827.857 2.56 1.55l-1.78 2.62c-.6-.507-1.237-.903-1.91-1.19-.673-.287-1.417-.43-2.23-.43-.413 0-.747.04-1 .12-.253.08-.437.19-.55.33-.113.14-.17.297-.17.47 0 .213.13.387.39.52s.623.253 1.09.36l2 .46c1.333.307 2.327.757 2.98 1.35.653.593.98 1.403.98 2.43 0 1-.25 1.833-.75 2.5s-1.183 1.167-2.05 1.5c-.867.333-1.847.5-2.94.5-.867 0-1.71-.087-2.53-.26-.82-.173-1.57-.423-2.25-.75-.68-.327-1.267-.717-1.76-1.17l1.76-2.7c.36.347.8.657 1.32.93s1.073.49 1.66.65c.587.16 1.153.24 1.7.24.387 0 .703-.037.95-.11.247-.073.423-.177.53-.31.107-.133.16-.293.16-.48 0-.227-.087-.41-.26-.55-.173-.14-.5-.263-.98-.37l-2.2-.5c-.72-.16-1.387-.38-2-.66s-1.103-.67-1.47-1.17c-.367-.5-.55-1.157-.55-1.97 0-.867.233-1.633.7-2.3.467-.667 1.147-1.187 2.04-1.56S114.347.6 115.6.6zm19.92.2V14h-4.1V.8h4.1zm-8.38 0V14h-4.08V.8h4.08zm6.52 5.02v3.06h-8.62V5.82h8.62zm4.3 8.18V.8h10.64v3.06h-6.56V6h5.24v2.84h-5.24v2.1h6.82V14h-10.9zm25-13.2V14h-4.48l-3.6-6.54-.84-1.78H154l.08 2.6V14h-3.56V.8h4.46l3.6 6.54.86 1.78h.02l-.08-2.6V.8h3.58zm14.98 0l-6.34 7.94-.2-.78-3.02 3.9-.88-3.02L173.52.8h4.42zm-8.46 0V14h-4.08V.8h4.08zm3.58 4.18l5.2 9.02h-4.62l-3.6-6.76 3.02-2.26zM185.64.6c1.373 0 2.55.27 3.53.81s1.733 1.317 2.26 2.33c.527 1.013.79 2.233.79 3.66s-.263 2.647-.79 3.66c-.527 1.013-1.28 1.79-2.26 2.33-.98.54-2.157.81-3.53.81-1.36 0-2.537-.27-3.53-.81-.993-.54-1.757-1.317-2.29-2.33-.533-1.013-.8-2.233-.8-3.66s.267-2.647.8-3.66c.533-1.013 1.297-1.79 2.29-2.33.993-.54 2.17-.81 3.53-.81zm0 3.12c-.547 0-.997.137-1.35.41-.353.273-.62.677-.8 1.21-.18.533-.27 1.22-.27 2.06 0 .827.09 1.51.27 2.05.18.54.447.947.8 1.22.353.273.803.41 1.35.41.533 0 .98-.137 1.34-.41.36-.273.627-.68.8-1.22.173-.54.26-1.223.26-2.05 0-.84-.087-1.527-.26-2.06-.173-.533-.44-.937-.8-1.21-.36-.273-.807-.41-1.34-.41z"/>
</svg>
